<svg width="160" height="37" viewBox="0 0 160 37" fill="none" xmlns="http://www.w3.org/2000/svg">
<rect x="0.5" y="0.5" width="159" height="36" stroke="#1C275A"/>
<path d="M71.4502 14.0059C72.7399 14.0059 73.681 14.2839 74.2734 14.8398C74.8659 15.3913 75.1621 16.1523 75.1621 17.123C75.1621 17.5605 75.096 17.9798 74.9639 18.3809C74.8317 18.7773 74.6152 19.1305 74.3145 19.4404C74.0182 19.7503 73.6217 19.9964 73.125 20.1787C72.6283 20.3564 72.0153 20.4453 71.2861 20.4453H70.377V24H68.2578V14.0059H71.4502ZM71.3408 15.7422H70.377V18.709H71.0742C71.4707 18.709 71.8148 18.6566 72.1064 18.5518C72.3981 18.4469 72.6237 18.2829 72.7832 18.0596C72.9427 17.8363 73.0225 17.5492 73.0225 17.1982C73.0225 16.7061 72.8857 16.3415 72.6123 16.1045C72.3389 15.863 71.915 15.7422 71.3408 15.7422ZM83.5301 20.165C83.5301 20.8031 83.4435 21.3682 83.2703 21.8604C83.1017 22.3525 82.8533 22.7695 82.5252 23.1113C82.2016 23.4486 81.8097 23.7038 81.3494 23.877C80.8937 24.0501 80.3787 24.1367 79.8045 24.1367C79.2667 24.1367 78.7723 24.0501 78.3211 23.877C77.8745 23.7038 77.4848 23.4486 77.1521 23.1113C76.824 22.7695 76.5688 22.3525 76.3865 21.8604C76.2088 21.3682 76.1199 20.8031 76.1199 20.165C76.1199 19.3174 76.2703 18.5996 76.5711 18.0117C76.8719 17.4238 77.3003 16.9772 77.8562 16.6719C78.4122 16.3665 79.0753 16.2139 79.8455 16.2139C80.561 16.2139 81.1945 16.3665 81.7459 16.6719C82.3019 16.9772 82.7371 17.4238 83.0516 18.0117C83.3706 18.5996 83.5301 19.3174 83.5301 20.165ZM78.2459 20.165C78.2459 20.6663 78.3006 21.0879 78.41 21.4297C78.5193 21.7715 78.6902 22.029 78.9227 22.2021C79.1551 22.3753 79.4581 22.4619 79.8318 22.4619C80.201 22.4619 80.4995 22.3753 80.7273 22.2021C80.9598 22.029 81.1284 21.7715 81.2332 21.4297C81.3426 21.0879 81.3973 20.6663 81.3973 20.165C81.3973 19.6592 81.3426 19.2399 81.2332 18.9072C81.1284 18.57 80.9598 18.3171 80.7273 18.1484C80.4949 17.9798 80.1919 17.8955 79.8182 17.8955C79.2667 17.8955 78.8657 18.0846 78.615 18.4629C78.3689 18.8411 78.2459 19.4085 78.2459 20.165ZM89.2047 16.2139C90.066 16.2139 90.761 16.5488 91.2896 17.2188C91.8229 17.8887 92.0895 18.8708 92.0895 20.165C92.0895 21.0309 91.9641 21.7601 91.7135 22.3525C91.4628 22.9404 91.1165 23.3848 90.6744 23.6855C90.2324 23.9863 89.7242 24.1367 89.15 24.1367C88.7809 24.1367 88.4641 24.0911 88.1998 24C87.9355 23.9043 87.7099 23.7835 87.523 23.6377C87.3362 23.4873 87.1744 23.3278 87.0377 23.1592H86.9283C86.9648 23.3415 86.9921 23.5283 87.0104 23.7197C87.0286 23.9111 87.0377 24.098 87.0377 24.2803V27.3633H84.9527V16.3574H86.648L86.942 17.3486H87.0377C87.1744 17.1436 87.3408 16.9544 87.5367 16.7812C87.7327 16.6081 87.9674 16.4714 88.2408 16.3711C88.5188 16.2663 88.8401 16.2139 89.2047 16.2139ZM88.5348 17.8818C88.1702 17.8818 87.8808 17.957 87.6666 18.1074C87.4524 18.2578 87.2952 18.4834 87.1949 18.7842C87.0992 19.085 87.0468 19.4655 87.0377 19.9258V20.1514C87.0377 20.6436 87.0833 21.0605 87.1744 21.4023C87.2701 21.7441 87.4273 22.0039 87.6461 22.1816C87.8694 22.3594 88.1747 22.4482 88.5621 22.4482C88.8811 22.4482 89.1432 22.3594 89.3482 22.1816C89.5533 22.0039 89.706 21.7441 89.8062 21.4023C89.9111 21.056 89.9635 20.6344 89.9635 20.1377C89.9635 19.3903 89.8473 18.8275 89.6148 18.4492C89.3824 18.071 89.0224 17.8818 88.5348 17.8818ZM100.526 16.3574V24H98.9262L98.6459 23.0225H98.5365C98.3725 23.2822 98.1674 23.4941 97.9213 23.6582C97.6752 23.8223 97.404 23.943 97.1078 24.0205C96.8116 24.098 96.504 24.1367 96.185 24.1367C95.6381 24.1367 95.1618 24.041 94.7563 23.8496C94.3507 23.6536 94.0339 23.3506 93.8061 22.9404C93.5827 22.5303 93.4711 21.9971 93.4711 21.3408V16.3574H95.5561V20.8213C95.5561 21.3682 95.654 21.7806 95.85 22.0586C96.046 22.3366 96.3581 22.4756 96.7865 22.4756C97.2104 22.4756 97.543 22.3799 97.7846 22.1885C98.0261 21.9925 98.1947 21.7077 98.2904 21.334C98.3907 20.9557 98.4408 20.4954 98.4408 19.9531V16.3574H100.526ZM104.498 24H102.413V13.3633H104.498V24ZM109.523 16.2002C110.549 16.2002 111.335 16.4235 111.882 16.8701C112.429 17.3167 112.702 17.9958 112.702 18.9072V24H111.246L110.843 22.9609H110.788C110.569 23.2344 110.346 23.4577 110.118 23.6309C109.89 23.804 109.628 23.9316 109.332 24.0137C109.036 24.0957 108.676 24.1367 108.252 24.1367C107.801 24.1367 107.395 24.0501 107.035 23.877C106.68 23.7038 106.399 23.4395 106.194 23.084C105.989 22.724 105.887 22.2682 105.887 21.7168C105.887 20.9056 106.172 20.3086 106.741 19.9258C107.311 19.5384 108.165 19.3242 109.305 19.2832L110.631 19.2422V18.9072C110.631 18.5062 110.526 18.2122 110.316 18.0254C110.107 17.8385 109.815 17.7451 109.441 17.7451C109.072 17.7451 108.71 17.7975 108.354 17.9023C107.999 18.0072 107.644 18.1393 107.288 18.2988L106.598 16.8906C107.003 16.6764 107.457 16.5078 107.958 16.3848C108.464 16.2617 108.986 16.2002 109.523 16.2002ZM110.631 20.459L109.824 20.4863C109.15 20.5046 108.68 20.6253 108.416 20.8486C108.156 21.0719 108.026 21.3659 108.026 21.7305C108.026 22.0495 108.12 22.2773 108.307 22.4141C108.493 22.5462 108.737 22.6123 109.038 22.6123C109.485 22.6123 109.861 22.4801 110.166 22.2158C110.476 21.9515 110.631 21.5755 110.631 21.0879V20.459ZM118.821 16.2139C118.926 16.2139 119.047 16.2207 119.183 16.2344C119.325 16.2435 119.439 16.2572 119.525 16.2754L119.368 18.2305C119.3 18.2077 119.202 18.1917 119.074 18.1826C118.951 18.1689 118.844 18.1621 118.753 18.1621C118.484 18.1621 118.222 18.1963 117.967 18.2646C117.716 18.333 117.49 18.4447 117.29 18.5996C117.089 18.75 116.93 18.9505 116.811 19.2012C116.697 19.4473 116.64 19.7503 116.64 20.1104V24H114.555V16.3574H116.135L116.442 17.6426H116.545C116.695 17.3828 116.882 17.1458 117.105 16.9316C117.333 16.7129 117.591 16.5397 117.878 16.4121C118.169 16.2799 118.484 16.2139 118.821 16.2139Z" fill="black"/>
<g opacity="0.5">
<path fill-rule="evenodd" clip-rule="evenodd" d="M131.12 16.2901L135 20.1701L138.88 16.2901C139.27 15.9001 139.9 15.9001 140.29 16.2901C140.68 16.6801 140.68 17.3101 140.29 17.7001L135.7 22.2901C135.31 22.6801 134.68 22.6801 134.29 22.2901L129.7 17.7001C129.31 17.3101 129.31 16.6801 129.7 16.2901C130.09 15.9101 130.73 15.9001 131.12 16.2901Z" fill="black"/>
</g>
<path opacity="0.5" d="M18.5063 21.5308C18.5063 22.0809 18.3688 22.5506 18.0938 22.9399C17.8229 23.325 17.4421 23.6191 16.9512 23.8223C16.4603 24.0254 15.8826 24.127 15.2183 24.127C14.867 24.127 14.5348 24.11 14.2217 24.0762C13.9085 24.0423 13.6208 23.9937 13.3584 23.9302C13.096 23.8667 12.8654 23.7884 12.6665 23.6953V22.6606C12.9839 22.7918 13.3711 22.9146 13.8281 23.0288C14.2852 23.1388 14.7633 23.1938 15.2627 23.1938C15.7282 23.1938 16.1217 23.1325 16.4434 23.0098C16.765 22.8828 17.0083 22.703 17.1733 22.4702C17.3426 22.2332 17.4272 21.9497 17.4272 21.6196C17.4272 21.3022 17.3574 21.0378 17.2178 20.8262C17.0781 20.6104 16.8454 20.4157 16.5195 20.2422C16.1979 20.0645 15.7578 19.8761 15.1992 19.6772C14.8057 19.5376 14.4587 19.3853 14.1582 19.2202C13.8577 19.0509 13.606 18.8605 13.4028 18.6489C13.1997 18.4373 13.0452 18.1919 12.9395 17.9126C12.8379 17.6333 12.7871 17.3138 12.7871 16.9541C12.7871 16.459 12.9119 16.0358 13.1616 15.6846C13.4155 15.3291 13.7646 15.0583 14.209 14.8721C14.6576 14.6816 15.1717 14.5864 15.7515 14.5864C16.2466 14.5864 16.7036 14.633 17.1226 14.7261C17.5457 14.8192 17.9329 14.944 18.2842 15.1006L17.9478 16.0273C17.6134 15.8877 17.258 15.7713 16.8813 15.6782C16.509 15.5851 16.1239 15.5386 15.7261 15.5386C15.3283 15.5386 14.9919 15.5978 14.7168 15.7163C14.446 15.8306 14.2386 15.9935 14.0947 16.2051C13.9508 16.4167 13.8789 16.6685 13.8789 16.9604C13.8789 17.2863 13.9466 17.5571 14.082 17.7729C14.2217 17.9888 14.4417 18.1813 14.7422 18.3506C15.0469 18.5156 15.4489 18.6891 15.9482 18.8711C16.4941 19.07 16.9575 19.2816 17.3384 19.5059C17.7192 19.7259 18.0091 19.9967 18.208 20.3184C18.4069 20.6357 18.5063 21.0399 18.5063 21.5308ZM25.9441 20.5088C25.9441 21.0801 25.8701 21.59 25.722 22.0386C25.5739 22.4871 25.3602 22.8659 25.0809 23.1748C24.8016 23.4837 24.463 23.7207 24.0652 23.8857C23.6717 24.0465 23.2252 24.127 22.7259 24.127C22.2604 24.127 21.833 24.0465 21.4437 23.8857C21.0586 23.7207 20.7243 23.4837 20.4407 23.1748C20.1614 22.8659 19.9435 22.4871 19.7869 22.0386C19.6346 21.59 19.5584 21.0801 19.5584 20.5088C19.5584 19.7471 19.6875 19.0996 19.9456 18.5664C20.2037 18.029 20.5719 17.6206 21.0501 17.3413C21.5325 17.0578 22.1059 16.916 22.7703 16.916C23.4051 16.916 23.9594 17.0578 24.4334 17.3413C24.9116 17.6248 25.2819 18.0353 25.5442 18.5728C25.8108 19.106 25.9441 19.7513 25.9441 20.5088ZM20.6502 20.5088C20.6502 21.0674 20.7243 21.5519 20.8724 21.9624C21.0205 22.3729 21.249 22.6903 21.5579 22.9146C21.8668 23.1388 22.2646 23.251 22.7513 23.251C23.2337 23.251 23.6294 23.1388 23.9383 22.9146C24.2514 22.6903 24.4821 22.3729 24.6302 21.9624C24.7783 21.5519 24.8523 21.0674 24.8523 20.5088C24.8523 19.9544 24.7783 19.4762 24.6302 19.0742C24.4821 18.668 24.2535 18.3548 23.9446 18.1348C23.6357 17.9147 23.2358 17.8047 22.7449 17.8047C22.0213 17.8047 21.4902 18.0438 21.1517 18.522C20.8174 19.0002 20.6502 19.6624 20.6502 20.5088ZM30.6271 16.916C30.7667 16.916 30.9127 16.9245 31.065 16.9414C31.2174 16.9541 31.3528 16.9731 31.4713 16.9985L31.338 17.9761C31.2237 17.9465 31.0968 17.9232 30.9571 17.9062C30.8175 17.8893 30.6863 17.8809 30.5636 17.8809C30.2843 17.8809 30.0198 17.938 29.7701 18.0522C29.5247 18.1623 29.3089 18.3231 29.1227 18.5347C28.9365 18.742 28.7905 18.9938 28.6847 19.29C28.5789 19.582 28.526 19.9079 28.526 20.2676V24H27.4659V17.043H28.3419L28.4562 18.3252H28.5006C28.6445 18.0671 28.818 17.8322 29.0211 17.6206C29.2242 17.4048 29.4591 17.2334 29.7257 17.1064C29.9965 16.9795 30.297 16.916 30.6271 16.916ZM34.7323 23.2637C34.9058 23.2637 35.0836 23.2489 35.2655 23.2192C35.4475 23.1896 35.5956 23.1536 35.7099 23.1113V23.9302C35.5871 23.9852 35.4158 24.0317 35.1957 24.0698C34.9799 24.1079 34.7683 24.127 34.5609 24.127C34.1928 24.127 33.8585 24.0635 33.558 23.9365C33.2576 23.8053 33.0163 23.5853 32.8344 23.2764C32.6566 22.9674 32.5678 22.54 32.5678 21.9941V17.8682H31.5775V17.354L32.5741 16.9414L32.9931 15.4307H33.6278V17.043H35.6654V17.8682H33.6278V21.9624C33.6278 22.3983 33.7273 22.7241 33.9262 22.9399C34.1293 23.1558 34.398 23.2637 34.7323 23.2637ZM40.0547 14.7197H42.6826C43.8421 14.7197 44.7139 14.8932 45.2979 15.2402C45.8818 15.5872 46.1738 16.1776 46.1738 17.0112C46.1738 17.3709 46.104 17.6947 45.9644 17.9824C45.8289 18.266 45.63 18.5008 45.3677 18.687C45.1053 18.8732 44.7816 19.0023 44.3965 19.0742V19.1377C44.8027 19.2012 45.1624 19.3175 45.4756 19.4868C45.7887 19.6561 46.0342 19.8931 46.2119 20.1978C46.3896 20.5024 46.4785 20.8896 46.4785 21.3594C46.4785 21.9307 46.3452 22.4131 46.0786 22.8066C45.8162 23.2002 45.4438 23.4985 44.9614 23.7017C44.479 23.9006 43.9077 24 43.2476 24H40.0547V14.7197ZM41.1338 18.6997H42.9111C43.7194 18.6997 44.278 18.5664 44.5869 18.2998C44.9001 18.0332 45.0566 17.6439 45.0566 17.1318C45.0566 16.6029 44.8704 16.222 44.498 15.9893C44.1299 15.7565 43.5417 15.6401 42.7334 15.6401H41.1338V18.6997ZM41.1338 19.6074V23.0796H43.0635C43.8887 23.0796 44.4727 22.9188 44.8154 22.5972C45.1582 22.2713 45.3296 21.8333 45.3296 21.2832C45.3296 20.932 45.2513 20.6315 45.0947 20.3818C44.9424 20.1322 44.6927 19.9417 44.3457 19.8105C44.0029 19.6751 43.5438 19.6074 42.9683 19.6074H41.1338ZM46.9021 17.043H48.032L49.5682 21.0801C49.657 21.3171 49.7396 21.5456 49.8157 21.7656C49.8919 21.9814 49.9596 22.1888 50.0188 22.3877C50.0781 22.5866 50.1246 22.7791 50.1585 22.9653H50.2029C50.2622 22.7537 50.3468 22.4766 50.4568 22.1338C50.5669 21.7868 50.6854 21.4334 50.8123 21.0737L52.2659 17.043H53.4021L50.3743 25.022C50.2135 25.4494 50.0252 25.8218 49.8094 26.1392C49.5978 26.4565 49.3396 26.6999 49.035 26.8691C48.7303 27.0426 48.3621 27.1294 47.9305 27.1294C47.7316 27.1294 47.556 27.1167 47.4036 27.0913C47.2513 27.0701 47.1201 27.0448 47.0101 27.0151V26.1709C47.1032 26.1921 47.2153 26.2111 47.3465 26.228C47.4819 26.245 47.6216 26.2534 47.7654 26.2534C48.0278 26.2534 48.2542 26.2026 48.4446 26.1011C48.6393 26.0037 48.8064 25.8599 48.9461 25.6694C49.0857 25.479 49.2063 25.2526 49.3079 24.9902L49.6888 24.0127L46.9021 17.043Z" fill="black"/>
</svg>
